<?xml version="1.0" standalone="no"?>
<!DOCTYPE svg PUBLIC "-//W3C//DTD SVG 20010904//EN"
 "http://www.w3.org/TR/2001/REC-SVG-20010904/DTD/svg10.dtd">
<svg version="1.0" xmlns="http://www.w3.org/2000/svg"
 width="1201.000000pt" height="1201.000000pt" viewBox="0 0 1201.000000 1201.000000"
 preserveAspectRatio="xMidYMid meet">
<metadata>
Created by potrace 1.14, written by Peter Selinger 2001-2017
</metadata>
<g transform="translate(0.000000,1201.000000) scale(0.100000,-0.100000)"
fill="#000000" stroke="none">
<path d="M4153 10156 l-28 -24 -1 -233 c-1 -129 -2 -237 -3 -241 0 -4 -9 -6
-18 -6 -10 0 -74 -13 -143 -30 -863 -212 -1558 -806 -1904 -1629 -57 -137
-143 -431 -160 -548 -4 -23 -8 -50 -10 -62 -3 -12 -7 -41 -10 -65 -4 -23 -9
-61 -12 -83 -20 -141 -6 -646 18 -671 5 -4 2512 -9 2616 -5 7 1 11 5 8 10 -5
8 -11 55 -21 181 -6 77 -7 340 -1 390 3 19 7 67 11 105 3 39 8 82 10 96 l5 26
-895 0 c-492 0 -898 2 -901 6 -8 8 43 186 82 283 87 218 208 412 364 588 84
94 270 260 324 288 11 6 23 14 26 18 11 15 183 113 276 156 91 43 296 117 354
128 14 2 59 11 101 19 120 24 203 31 364 31 174 0 251 -7 389 -35 296 -61 595
-202 831 -392 39 -31 115 -102 170 -159 l100 -102 382 0 c369 0 383 0 410 20
49 36 66 70 66 123 0 45 -7 60 -68 151 -38 57 -74 107 -79 114 -6 6 -38 45
-71 86 -83 105 -292 311 -405 401 -113 90 -278 202 -375 254 -135 73 -151 81
-235 117 -191 83 -328 128 -503 166 -48 11 -91 23 -95 26 -4 4 -8 106 -8 227
-2 269 1 245 -29 274 l-24 25 -440 0 -440 0 -28 -24z"/>
<path d="M7168 9695 c-2 -2 -32 -6 -68 -10 -36 -3 -76 -8 -90 -10 -14 -2 -45
-7 -70 -10 -133 -18 -310 -62 -464 -114 -119 -41 -296 -115 -334 -139 -22 -14
-21 -15 40 -55 178 -116 305 -221 486 -404 l143 -145 82 21 c113 28 176 40
255 48 85 9 348 9 427 1 718 -81 1330 -548 1598 -1219 42 -106 92 -277 84
-286 -5 -5 -3665 -9 -3770 -4 -23 1 -19 23 25 161 66 208 167 404 296 575 37
49 73 96 80 105 11 15 6 24 -41 69 -148 141 -387 292 -572 360 l-60 23 -28
-34 c-92 -109 -246 -362 -326 -535 -78 -171 -163 -425 -187 -563 -3 -14 -11
-57 -19 -95 -8 -39 -17 -97 -21 -130 -3 -33 -10 -91 -14 -130 -9 -79 -7 -486
3 -501 3 -6 7 -32 8 -58 2 -26 7 -49 11 -52 6 -4 5350 -8 5444 -4 6 0 11 15
12 33 1 17 4 43 8 57 13 55 12 495 -2 600 -21 157 -21 158 -43 262 -219 1048
-1050 1892 -2088 2117 -146 31 -178 37 -258 47 -27 3 -61 8 -75 11 -27 5 -467
13 -472 8z"/>
<path d="M4656 6472 c34 -199 141 -510 242 -707 68 -132 195 -338 253 -409 5
-6 25 -31 45 -56 84 -106 114 -139 204 -230 243 -244 516 -434 826 -575 241
-108 515 -187 769 -219 22 -3 60 -8 85 -12 66 -10 413 -12 500 -3 167 16 200
21 320 45 362 73 675 202 985 410 77 51 152 103 167 116 15 13 48 41 75 63
173 143 344 329 484 526 110 155 126 197 107 267 -14 50 -45 89 -90 111 -35
17 -64 19 -355 19 -174 0 -331 -4 -348 -9 -18 -5 -52 -30 -76 -55 -120 -126
-211 -213 -278 -266 -221 -177 -472 -300 -743 -367 -188 -47 -267 -56 -468
-56 -121 0 -296 11 -310 20 -3 2 -22 6 -44 9 -71 11 -234 56 -318 87 -555 204
-987 652 -1179 1223 l-32 95 -413 0 -412 -1 4 -26z"/>
<path d="M6491 6430 c-4 -3 -24 -54 -45 -115 -78 -222 -196 -435 -341 -609
l-40 -48 70 -64 c150 -137 423 -305 579 -356 l45 -15 49 67 c232 310 403 678
483 1039 10 47 19 91 19 96 0 10 -805 15 -819 5z"/>
<path d="M2384 5749 c-69 -14 -116 -79 -108 -147 7 -57 178 -314 303 -457 76
-86 280 -283 361 -348 317 -255 736 -458 1115 -540 l60 -13 3 -270 2 -271 26
-24 26 -24 444 0 444 0 22 23 c23 22 23 27 25 280 1 141 2 260 2 263 1 3 7 6
14 6 18 0 81 11 134 24 27 6 55 12 63 14 58 13 179 49 250 75 47 17 90 32 95
34 24 7 247 105 253 111 2 1 -41 32 -95 67 -155 102 -296 220 -454 379 l-146
147 -74 -19 c-41 -11 -87 -21 -104 -24 -16 -3 -41 -7 -55 -10 -140 -26 -363
-35 -490 -21 -152 18 -167 21 -295 50 -334 77 -669 268 -917 522 -42 44 -93
98 -113 121 -21 25 -49 45 -68 49 -38 9 -682 12 -723 3z"/>
</g>
</svg>
