<svg version="1.1" xmlns="http://www.w3.org/2000/svg" viewBox="0 0 1221.1442811902657 862" width="1221.1442811902657" height="862">
  <!-- svg-source:excalidraw -->
  
  <defs>
    <style class="style-fonts">
      @font-face {
        font-family: "Virgil";
        src: url("https://excalidraw.com/Virgil.woff2");
      }
      @font-face {
        font-family: "Cascadia";
        src: url("https://excalidraw.com/Cascadia.woff2");
      }
    </style>
    
  </defs>
  <g stroke-linecap="round" transform="translate(60 47) rotate(13.884667685258199 38 27.5)"><path d="M0 0 C16.03 0, 32.05 0, 76 0 M0 0 C25.08 0, 50.16 0, 76 0 M76 0 C76 13.74, 76 27.47, 76 55 M76 0 C76 19.4, 76 38.79, 76 55 M76 55 C48.67 55, 21.33 55, 0 55 M76 55 C50.53 55, 25.07 55, 0 55 M0 55 C0 39.39, 0 23.78, 0 0 M0 55 C0 43.76, 0 32.51, 0 0" stroke="#ffffff" stroke-width="1" fill="none"></path></g><g stroke-linecap="round" transform="translate(1177 290) rotate(291.9349553112784 13.039993286132812 17.5)"><path d="M0 0 C7.72 0, 15.44 0, 26.08 0 M0 0 C9.05 0, 18.1 0, 26.08 0 M26.08 0 C26.08 8, 26.08 16, 26.08 35 M26.08 0 C26.08 10.65, 26.08 21.31, 26.08 35 M26.08 35 C18.18 35, 10.28 35, 0 35 M26.08 35 C16.51 35, 6.94 35, 0 35 M0 35 C0 24.32, 0 13.65, 0 0 M0 35 C0 26.16, 0 17.32, 0 0" stroke="#ffffff" stroke-width="1" fill="none"></path></g><g stroke-linecap="round" transform="translate(1101 10) rotate(0 8.5 9)"><path d="M17 9 C17 9.52, 16.96 10.05, 16.87 10.56 C16.79 11.08, 16.66 11.59, 16.49 12.08 C16.32 12.57, 16.11 13.05, 15.86 13.5 C15.62 13.95, 15.33 14.39, 15.01 14.79 C14.7 15.18, 14.34 15.56, 13.96 15.89 C13.59 16.23, 13.18 16.53, 12.75 16.79 C12.32 17.05, 11.87 17.28, 11.41 17.46 C10.94 17.64, 10.46 17.77, 9.98 17.86 C9.49 17.95, 8.99 18, 8.5 18 C8.01 18, 7.51 17.95, 7.02 17.86 C6.54 17.77, 6.06 17.64, 5.59 17.46 C5.13 17.28, 4.68 17.05, 4.25 16.79 C3.82 16.53, 3.41 16.23, 3.04 15.89 C2.66 15.56, 2.3 15.18, 1.99 14.79 C1.67 14.39, 1.38 13.95, 1.14 13.5 C0.89 13.05, 0.68 12.57, 0.51 12.08 C0.34 11.59, 0.21 11.08, 0.13 10.56 C0.04 10.05, 0 9.52, 0 9 C0 8.48, 0.04 7.95, 0.13 7.44 C0.21 6.92, 0.34 6.41, 0.51 5.92 C0.68 5.43, 0.89 4.95, 1.14 4.5 C1.38 4.05, 1.67 3.61, 1.99 3.21 C2.3 2.82, 2.66 2.44, 3.04 2.11 C3.41 1.77, 3.82 1.47, 4.25 1.21 C4.68 0.95, 5.13 0.72, 5.59 0.54 C6.06 0.36, 6.54 0.23, 7.02 0.14 C7.51 0.05, 8.01 0, 8.5 0 C8.99 0, 9.49 0.05, 9.98 0.14 C10.46 0.23, 10.94 0.36, 11.41 0.54 C11.87 0.72, 12.32 0.95, 12.75 1.21 C13.18 1.47, 13.59 1.77, 13.96 2.11 C14.34 2.44, 14.7 2.82, 15.01 3.21 C15.33 3.61, 15.62 4.05, 15.86 4.5 C16.11 4.95, 16.32 5.43, 16.49 5.92 C16.66 6.41, 16.79 6.92, 16.87 7.44 C16.96 7.95, 16.98 8.74, 17 9 C17.02 9.26, 17.02 8.74, 17 9" stroke="#ffffff" stroke-width="1" fill="none"></path></g><g transform="translate(587.3636363636364 801.909090909091) rotate(0 -10.215909090909122 21.09090909090901)" stroke="none"><path fill="#ffffff" d="M -2.33,0.87 Q -2.33,0.87 -2.86,-0.64 -3.40,-2.17 -4.59,-3.51 -5.78,-4.85 -5.31,-5.94 -4.84,-7.02 -4.87,-5.84 -4.90,-4.67 -5.04,-2.99 -5.18,-1.31 -5.36,2.09 -5.55,5.49 -5.69,8.46 -5.83,11.43 -5.93,16.10 -6.03,20.77 -6.11,25.79 -6.18,30.81 -6.43,34.12 -6.68,37.44 -7.39,40.30 -8.10,43.15 -9.23,45.09 -10.35,47.02 -11.45,48.19 -12.54,49.36 -14.36,50.14 -16.17,50.92 -17.74,51.27 -19.31,51.62 -21.76,51.20 -24.21,50.78 -25.31,49.56 -26.40,48.35 -27.03,47.48 -27.66,46.61 -28.08,45.36 -28.50,44.11 -28.65,42.77 -28.80,41.44 -28.71,39.12 -28.61,36.79 -28.04,35.50 -27.47,34.21 -26.44,33.11 -25.41,32.00 -23.71,31.24 -22.01,30.48 -20.60,30.05 -19.20,29.63 -17.27,29.19 -15.33,28.76 -13.51,28.39 -11.69,28.01 -9.53,27.75 -7.37,27.49 -5.00,27.07 -2.63,26.64 -0.95,26.07 0.73,25.51 1.76,25.54 2.79,25.57 2.76,25.27 2.72,24.97 2.78,24.67 2.84,24.37 2.99,24.10 3.15,23.84 3.38,23.64 3.61,23.43 3.89,23.32 4.17,23.20 4.48,23.18 4.79,23.16 5.08,23.23 5.38,23.31 5.63,23.48 5.89,23.65 6.08,23.89 6.27,24.13 6.37,24.42 6.47,24.71 6.48,25.01 6.48,25.32 6.39,25.61 6.29,25.90 6.11,26.15 5.93,26.40 5.68,26.57 5.43,26.75 5.13,26.83 4.84,26.92 4.53,26.91 4.23,26.89 3.94,26.79 3.66,26.68 3.42,26.48 3.18,26.29 3.02,26.03 2.86,25.77 2.79,25.47 2.72,25.17 2.75,24.87 2.78,24.56 2.90,24.28 3.03,24.00 3.23,23.78 3.44,23.55 3.71,23.40 3.98,23.26 4.28,23.20 4.58,23.15 4.88,23.19 5.19,23.24 5.46,23.38 5.73,23.52 5.95,23.74 6.16,23.96 6.29,24.23 6.42,24.51 6.42,24.51 6.42,24.51 4.17,26.75 1.92,29.00 0.05,29.65 -1.81,30.30 -4.22,30.95 -6.64,31.59 -8.62,32.07 -10.59,32.55 -12.27,33.02 -13.94,33.49 -15.76,34.16 -17.58,34.83 -18.77,35.22 -19.97,35.60 -21.30,36.23 -22.63,36.86 -23.13,38.12 -23.64,39.39 -23.60,41.16 -23.57,42.93 -23.16,44.21 -22.74,45.50 -21.35,46.66 -19.97,47.82 -18.69,47.68 -17.42,47.53 -16.10,47.15 -14.79,46.77 -13.87,46.09 -12.95,45.42 -12.00,43.91 -11.06,42.40 -10.47,39.82 -9.89,37.25 -9.75,34.02 -9.62,30.80 -9.69,25.79 -9.77,20.77 -9.87,16.09 -9.96,11.42 -10.09,8.45 -10.22,5.47 -10.38,2.03 -10.54,-1.40 -10.62,-3.33 -10.69,-5.27 -10.24,-6.94 -9.78,-8.61 -7.08,-9.19 -4.38,-9.78 -3.34,-9.16 -2.29,-8.55 -1.28,-7.46 -0.26,-6.38 0.43,-5.13 1.13,-3.89 1.73,-2.38 2.33,-0.87 2.40,-0.58 2.47,-0.29 2.47,0.00 2.46,0.30 2.39,0.60 2.32,0.89 2.18,1.15 2.04,1.42 1.84,1.64 1.64,1.86 1.39,2.03 1.14,2.20 0.86,2.31 0.58,2.41 0.28,2.45 -0.00,2.48 -0.30,2.45 -0.60,2.41 -0.88,2.30 -1.16,2.19 -1.41,2.02 -1.65,1.85 -1.85,1.63 -2.05,1.40 -2.19,1.13 -2.33,0.87 -2.33,0.87 L -2.33,0.87 Z"></path></g><g transform="translate(587.3636363636364 821.0227272727273) rotate(0 6.590909090909122 8.56818181818187)" stroke="none"><path fill="#ffffff" d="M 2.40,0.40 Q 2.40,0.40 2.24,1.54 2.09,2.68 1.99,4.15 1.89,5.63 1.74,7.60 1.59,9.57 1.80,10.63 2.01,11.69 2.13,13.06 2.25,14.44 2.37,15.31 2.49,16.18 2.46,16.48 2.44,16.79 2.34,17.07 2.25,17.36 2.09,17.62 1.93,17.87 1.71,18.08 1.49,18.30 1.23,18.45 0.97,18.60 0.68,18.68 0.38,18.77 0.08,18.78 -0.21,18.80 -0.51,18.74 -0.80,18.68 -1.08,18.55 -1.35,18.42 -1.59,18.23 -1.82,18.04 -2.00,17.79 -2.19,17.55 -2.31,17.27 -2.43,17.00 -2.48,16.70 -2.52,16.40 -2.17,15.36 -1.82,14.33 -0.88,12.74 0.05,11.16 1.75,10.75 3.45,10.34 5.45,10.60 7.44,10.86 9.33,8.24 11.21,5.62 11.54,5.24 11.87,4.86 12.30,4.61 12.73,4.36 13.22,4.26 13.71,4.15 14.21,4.22 14.70,4.28 15.15,4.49 15.61,4.71 15.96,5.06 16.32,5.41 16.55,5.85 16.78,6.30 16.85,6.79 16.93,7.29 16.84,7.78 16.75,8.27 16.51,8.71 16.27,9.15 15.91,9.49 15.54,9.83 15.08,10.03 14.62,10.24 14.13,10.28 13.63,10.33 13.14,10.22 12.65,10.10 12.23,9.84 11.80,9.58 11.48,9.19 11.16,8.80 10.99,8.34 10.81,7.87 10.79,7.37 10.77,6.87 10.91,6.39 11.05,5.91 11.33,5.50 11.62,5.09 12.02,4.79 12.42,4.49 12.90,4.34 13.38,4.19 13.88,4.19 14.38,4.20 14.85,4.37 15.32,4.53 15.72,4.84 16.11,5.15 16.38,5.57 16.66,5.98 16.79,6.47 16.91,6.95 16.88,7.45 16.85,7.95 16.66,8.41 16.46,8.87 16.46,8.87 16.46,8.87 15.04,11.19 13.62,13.51 12.36,14.82 11.10,16.12 9.57,16.51 8.04,16.90 6.34,16.52 4.63,16.14 3.56,16.16 2.49,16.18 2.46,16.48 2.44,16.79 2.34,17.07 2.25,17.36 2.09,17.62 1.93,17.87 1.71,18.08 1.49,18.29 1.23,18.45 0.97,18.60 0.68,18.68 0.38,18.77 0.08,18.78 -0.21,18.80 -0.51,18.74 -0.80,18.68 -1.08,18.55 -1.35,18.42 -1.59,18.23 -1.82,18.04 -2.00,17.79 -2.19,17.55 -2.31,17.27 -2.43,17.00 -2.48,16.70 -2.52,16.40 -2.50,15.56 -2.47,14.71 -2.50,13.52 -2.53,12.33 -2.67,10.92 -2.81,9.51 -2.89,7.45 -2.97,5.39 -2.91,3.62 -2.85,1.86 -2.62,0.73 -2.40,-0.40 -2.32,-0.68 -2.23,-0.96 -2.09,-1.21 -1.94,-1.47 -1.73,-1.68 -1.53,-1.89 -1.28,-2.05 -1.03,-2.20 -0.75,-2.29 -0.47,-2.39 -0.18,-2.41 0.10,-2.43 0.39,-2.38 0.68,-2.33 0.95,-2.22 1.22,-2.10 1.46,-1.92 1.69,-1.75 1.88,-1.52 2.06,-1.29 2.19,-1.02 2.31,-0.76 2.37,-0.47 2.43,-0.18 2.41,0.10 2.40,0.40 2.40,0.40 L 2.40,0.40 Z"></path></g><g transform="translate(595.9318181818181 815.75) rotate(0 -2.965909090909065 5.602272727272748)" stroke="none"><path fill="#ffffff" d="M 1.95,1.39 Q 1.95,1.39 0.98,2.70 0.01,4.01 -0.70,5.36 -1.42,6.72 -1.88,7.87 -2.34,9.02 -2.99,10.52 -3.63,12.02 -3.83,12.36 -4.02,12.71 -4.31,12.97 -4.60,13.24 -4.96,13.40 -5.32,13.56 -5.71,13.59 -6.10,13.63 -6.49,13.54 -6.87,13.44 -7.20,13.24 -7.54,13.03 -7.79,12.72 -8.04,12.42 -8.18,12.05 -8.31,11.68 -8.33,11.29 -8.34,10.89 -8.23,10.51 -8.12,10.14 -7.89,9.81 -7.66,9.49 -7.35,9.26 -7.03,9.03 -6.65,8.91 -6.28,8.79 -5.88,8.80 -5.49,8.80 -5.12,8.94 -4.75,9.07 -4.44,9.31 -4.13,9.56 -3.91,9.89 -3.70,10.22 -3.60,10.60 -3.50,10.98 -3.53,11.37 -3.56,11.77 -3.71,12.13 -3.86,12.49 -4.12,12.79 -4.39,13.08 -4.73,13.28 -5.07,13.48 -5.45,13.56 -5.84,13.63 -6.23,13.58 -6.62,13.53 -6.98,13.36 -7.33,13.19 -7.61,12.91 -7.89,12.64 -8.07,12.29 -8.25,11.93 -8.30,11.54 -8.36,11.15 -8.29,10.77 -8.22,10.38 -8.22,10.38 -8.22,10.38 -7.44,8.77 -6.65,7.16 -6.07,5.89 -5.48,4.62 -4.64,2.95 -3.80,1.29 -2.88,-0.05 -1.95,-1.39 -1.75,-1.60 -1.56,-1.82 -1.32,-1.98 -1.08,-2.14 -0.80,-2.23 -0.53,-2.33 -0.24,-2.36 0.03,-2.39 0.32,-2.35 0.61,-2.31 0.88,-2.21 1.14,-2.10 1.38,-1.93 1.61,-1.76 1.80,-1.54 1.99,-1.33 2.12,-1.07 2.25,-0.81 2.32,-0.53 2.38,-0.25 2.38,0.03 2.37,0.32 2.30,0.60 2.22,0.88 2.09,1.14 1.95,1.39 1.95,1.39 L 1.95,1.39 Z"></path></g><g transform="translate(590 826.2954545454545) rotate(0 16.477272727272748 4.94318181818187)" stroke="none"><path fill="#ffffff" d="M 0.36,-1.71 Q 0.36,-1.71 3.00,-1.09 5.64,-0.46 9.27,0.58 12.90,1.64 17.28,3.05 21.66,4.46 25.05,5.64 28.43,6.82 30.92,7.69 33.40,8.55 33.60,8.66 33.80,8.77 33.96,8.93 34.11,9.10 34.21,9.30 34.30,9.51 34.33,9.74 34.35,9.96 34.30,10.18 34.25,10.41 34.13,10.60 34.02,10.79 33.84,10.94 33.67,11.09 33.46,11.17 33.25,11.25 33.02,11.27 32.79,11.28 32.57,11.21 32.35,11.15 32.17,11.02 31.98,10.90 31.84,10.72 31.71,10.53 31.63,10.32 31.56,10.10 31.56,9.88 31.56,9.65 31.64,9.43 31.71,9.22 31.85,9.04 31.99,8.86 32.18,8.73 32.37,8.60 32.58,8.54 32.80,8.48 33.03,8.50 33.26,8.51 33.47,8.60 33.68,8.68 33.85,8.83 34.02,8.98 34.14,9.17 34.26,9.37 34.30,9.59 34.35,9.81 34.33,10.04 34.30,10.26 34.20,10.47 34.11,10.67 33.95,10.84 33.79,11.00 33.59,11.11 33.39,11.21 33.17,11.25 32.94,11.29 32.72,11.25 32.50,11.21 32.50,11.21 32.50,11.21 30.00,10.38 27.50,9.54 24.14,8.42 20.77,7.29 16.42,5.96 12.07,4.62 8.51,3.68 4.96,2.73 2.29,2.22 -0.36,1.71 -0.56,1.65 -0.76,1.58 -0.94,1.46 -1.12,1.35 -1.27,1.19 -1.41,1.04 -1.52,0.85 -1.62,0.67 -1.68,0.46 -1.73,0.26 -1.74,0.05 -1.75,-0.15 -1.70,-0.36 -1.66,-0.57 -1.56,-0.76 -1.47,-0.95 -1.34,-1.11 -1.20,-1.28 -1.03,-1.40 -0.86,-1.53 -0.66,-1.61 -0.47,-1.69 -0.26,-1.72 -0.05,-1.75 0.15,-1.73 0.36,-1.71 0.36,-1.71 L 0.36,-1.71 Z"></path></g><g stroke-linecap="round" transform="translate(10 318) rotate(0 21.5 22.5)"><path d="M43 22.5 C43 23.8, 42.89 25.12, 42.67 26.41 C42.46 27.69, 42.13 28.97, 41.7 30.2 C41.28 31.42, 40.74 32.62, 40.12 33.75 C39.5 34.88, 38.77 35.97, 37.97 36.96 C37.17 37.96, 36.27 38.9, 35.32 39.74 C34.37 40.57, 33.33 41.33, 32.25 41.99 C31.17 42.64, 30.02 43.2, 28.85 43.64 C27.68 44.09, 26.46 44.43, 25.23 44.66 C24.01 44.88, 22.74 45, 21.5 45 C20.26 45, 18.99 44.88, 17.77 44.66 C16.54 44.43, 15.32 44.09, 14.15 43.64 C12.98 43.2, 11.83 42.64, 10.75 41.99 C9.67 41.33, 8.63 40.57, 7.68 39.74 C6.73 38.9, 5.83 37.96, 5.03 36.96 C4.23 35.97, 3.5 34.88, 2.88 33.75 C2.26 32.62, 1.72 31.42, 1.3 30.2 C0.87 28.97, 0.54 27.69, 0.33 26.41 C0.11 25.12, 0 23.8, 0 22.5 C0 21.2, 0.11 19.88, 0.33 18.59 C0.54 17.31, 0.87 16.03, 1.3 14.8 C1.72 13.58, 2.26 12.38, 2.88 11.25 C3.5 10.12, 4.23 9.03, 5.03 8.04 C5.83 7.04, 6.73 6.1, 7.68 5.26 C8.63 4.43, 9.67 3.67, 10.75 3.01 C11.83 2.36, 12.98 1.8, 14.15 1.36 C15.32 0.91, 16.54 0.57, 17.77 0.34 C18.99 0.12, 20.26 0, 21.5 0 C22.74 0, 24.01 0.12, 25.23 0.34 C26.46 0.57, 27.68 0.91, 28.85 1.36 C30.02 1.8, 31.17 2.36, 32.25 3.01 C33.33 3.67, 34.37 4.43, 35.32 5.26 C36.27 6.1, 37.17 7.04, 37.97 8.04 C38.77 9.03, 39.5 10.12, 40.12 11.25 C40.74 12.38, 41.28 13.58, 41.7 14.8 C42.13 16.03, 42.46 17.31, 42.67 18.59 C42.89 19.88, 42.95 21.85, 43 22.5 C43.05 23.15, 43.05 21.85, 43 22.5" stroke="#ffffff" stroke-width="1" fill="none"></path></g><g stroke-linecap="round" transform="translate(151 527) rotate(0 30 30.5)"><path d="M60 30.5 C60 32.27, 59.85 34.06, 59.54 35.8 C59.24 37.53, 58.78 39.27, 58.19 40.93 C57.6 42.59, 56.85 44.22, 55.98 45.75 C55.11 47.28, 54.1 48.75, 52.98 50.11 C51.87 51.46, 50.61 52.73, 49.28 53.86 C47.95 55, 46.5 56.03, 45 56.91 C43.5 57.8, 41.89 58.56, 40.26 59.16 C38.63 59.76, 36.92 60.23, 35.21 60.54 C33.5 60.84, 31.74 61, 30 61 C28.26 61, 26.5 60.84, 24.79 60.54 C23.08 60.23, 21.37 59.76, 19.74 59.16 C18.11 58.56, 16.5 57.8, 15 56.91 C13.5 56.03, 12.05 55, 10.72 53.86 C9.39 52.73, 8.13 51.46, 7.02 50.11 C5.9 48.75, 4.89 47.28, 4.02 45.75 C3.15 44.22, 2.4 42.59, 1.81 40.93 C1.22 39.27, 0.76 37.53, 0.46 35.8 C0.15 34.06, 0 32.27, 0 30.5 C0 28.73, 0.15 26.94, 0.46 25.2 C0.76 23.47, 1.22 21.73, 1.81 20.07 C2.4 18.41, 3.15 16.78, 4.02 15.25 C4.89 13.72, 5.9 12.25, 7.02 10.89 C8.13 9.54, 9.39 8.27, 10.72 7.14 C12.05 6, 13.5 4.97, 15 4.09 C16.5 3.2, 18.11 2.44, 19.74 1.84 C21.37 1.24, 23.08 0.77, 24.79 0.46 C26.5 0.16, 28.26 0, 30 0 C31.74 0, 33.5 0.16, 35.21 0.46 C36.92 0.77, 38.63 1.24, 40.26 1.84 C41.89 2.44, 43.5 3.2, 45 4.09 C46.5 4.97, 47.95 6, 49.28 7.14 C50.61 8.27, 51.87 9.54, 52.98 10.89 C54.1 12.25, 55.11 13.72, 55.98 15.25 C56.85 16.78, 57.6 18.41, 58.19 20.07 C58.78 21.73, 59.24 23.47, 59.54 25.2 C59.85 26.94, 59.92 29.62, 60 30.5 C60.08 31.38, 60.08 29.62, 60 30.5" stroke="#ffffff" stroke-width="1" fill="none"></path></g><g stroke-linecap="round" transform="translate(1071 502) rotate(17.981429696964035 21.5 35)"><path d="M22 0 C28.82 11.69, 35.64 23.38, 43 36 M22 0 C26.91 8.42, 31.82 16.83, 43 36 M43 36 C38.46 43.36, 33.91 50.71, 22 70 M43 36 C37.05 45.63, 31.1 55.27, 22 70 M22 70 C14.28 58.07, 6.56 46.14, 0 36 M22 70 C15.73 60.31, 9.46 50.62, 0 36 M0 36 C5.83 26.45, 11.67 16.91, 22 0 M0 36 C8.33 22.37, 16.66 8.74, 22 0" stroke="#ffffff" stroke-width="1" fill="none"></path></g></svg>