<?xml version="1.0" encoding="UTF-8"?>
<svg id="Layer_1" data-name="Layer 1" xmlns="http://www.w3.org/2000/svg" viewBox="0 0 1200 1200">
  <defs>
    <style>
      .cls-1 {
        fill: #f4f4f4;
      }
    </style>
  </defs>
  <path class="cls-1" d="m589.57,634.69c2.68,3.13,5.56,6.14,8.5,9.08-.13-.06-.26-.19-.38-.32l-8.37-8.44.26-.32Z"/>
  <path class="cls-1" d="m598.08,643.77c4.79,4.86,9.91,9.46,15.22,13.74-5.31-4.22-10.42-8.82-15.22-13.74Z"/>
  <path class="cls-1" d="m639.12,675.16c2.37,1.34,4.73,2.68,7.22,3.9-.38-.19-.77-.38-1.15-.58-2.05-1.09-4.09-2.17-6.07-3.32Z"/>
  <path class="cls-1" d="m669.42,689.16c3.52,1.28,7.03,2.49,10.68,3.52l-.19.19-8.57-2.94c-.64-.26-1.28-.51-1.92-.77Z"/>
  <g>
    <path class="cls-1" d="m1008.51,463.81c-20.27-131.95-134.38-233.09-272.08-233.09-44.94,0-87.26,10.74-124.66,29.79,24.55,14.96,46.48,33.5,65.4,55.04,1.21,1.34,2.43,2.68,3.52,4.03,17.64-5.37,36.38-8.18,55.75-8.18,93.02,0,170.76,65.21,190,152.41h-380.06c7.16-32.48,22.44-61.82,43.6-85.92-.06-.06-.13-.13-.19-.19-18.16-18.28-40.34-32.73-64.31-41.81-1.41-.51-2.81-1.02-4.22-1.47-27.36,34.14-46.67,74.86-55.17,119.48l-2.05,12.02c-.38,2.75-.77,5.5-1.09,8.31-.06.38-.06.77-.13,1.15-.06.77-.19,1.6-.19,2.37-.32,2.43-.51,4.92-.7,7.48-.26,3.32-.51,6.78-.64,10.23-.13,3.45-.19,6.97-.19,10.61,0,3.2.06,6.46.19,9.72.13,3.2.26,6.46.51,9.65.19,3.2.51,6.33.83,9.53.13,1.53.32,3.13.58,4.73.13.96.26,1.85.38,2.81l.26,1.92h545.25c1.79-12.53,2.68-25.32,2.68-38.36,0-14.38-1.09-28.45-3.26-42.26Z"/>
    <path class="cls-1" d="m954.91,618.71h-56.94c-5.21,0-10.05,2.43-13.41,6.41-35.66,42.35-89.08,69.28-148.83,69.28-19.31,0-37.97-2.81-55.62-8.12-3.64-1.02-7.16-2.24-10.68-3.52-.83-.26-1.66-.58-2.49-.9-6.07-2.3-12.08-4.92-17.84-7.8-.83-.38-1.6-.77-2.37-1.21-.13,0-.26-.13-.38-.19-2.49-1.21-4.86-2.56-7.22-3.9-3.13-1.79-6.2-3.64-9.14-5.56-2.43-1.6-4.86-3.2-7.16-4.86l-1.34-.96c-2.81-2.05-5.5-4.09-8.18-6.27-5.31-4.28-10.42-8.89-15.22-13.74-2.94-2.94-5.82-5.95-8.5-9.08-2.75-3.07-5.37-6.26-7.93-9.59-15.41-19.95-27.04-42.9-33.88-67.89h-82.6c4.48,23.85,11.95,46.6,22.18,67.89,11.06,23.01,25.19,44.24,41.81,63.16,19.75,22.31,42.96,41.36,68.92,56.32,40.47,23.46,87.52,36.89,137.64,36.89,98.76,0,185.39-52,233.96-130.12,7.11-11.43-1.31-26.25-14.77-26.25Z"/>
  </g>
  <g>
    <path class="cls-1" d="m648.33,557.21h82.6c-4.48,23.85-11.95,46.6-22.18,67.89-9.08,18.86-20.2,36.57-33.18,52.74-25.76-8.95-49.29-23.72-68.79-43.41,2.62-3,5.18-6.14,7.67-9.33,15.41-19.95,27.04-42.9,33.88-67.89Z"/>
    <path class="cls-1" d="m522.7,692.61c-17.71,5.31-36.5,8.18-55.94,8.18-60.38,0-114.31-27.5-149.96-70.63-2.61-3.16-6.43-5.06-10.53-5.06h-65.25c-10.59,0-16.99,11.53-11.62,20.65,47.86,81.23,136.25,135.72,237.35,135.72,45.01,0,87.46-10.8,124.92-29.92-25.83-15.85-49.23-35.74-68.98-58.94Z"/>
    <path class="cls-1" d="m693.14,358.88c5.99,9.46-.72,21.82-11.91,21.82h-71.96c-.77-.9-1.53-1.79-2.43-2.68q-.06-.06-.06-.13c-2.68-3.2-5.69-6.33-8.76-9.33-19.24-19.37-42.64-34.71-68.72-44.62-4.22-1.6-8.57-3.07-12.98-4.35h-.06c-17.71-5.37-36.44-8.18-55.87-8.18-93.02,0-170.76,65.21-190,152.41h180.34c-.58,3.45-1.02,6.9-1.34,10.42-.77,6.78-1.28,13.68-1.6,20.65-.13,3.71-.19,7.42-.19,11.19,0,9.85.51,19.63,1.47,29.22.32,3.07.7,6.14,1.15,9.14H187.71c-1.79-12.53-2.69-25.32-2.69-38.36,0-14.38,1.09-28.45,3.26-42.26,20.27-131.95,134.38-233.09,272.08-233.09,44.88,0,87.26,10.74,124.66,29.86,4.41,2.17,8.76,4.54,13.04,6.97,25.89,15.02,49.16,34.14,68.79,56.45,3.13,3.45,6.07,6.9,8.89,10.48,6.23,7.8,12.03,15.95,17.38,24.4Z"/>
  </g>
  <rect class="cls-1" x="412.58" y="182.46" width="98.59" height="66.54" rx="8.46" ry="8.46"/>
  <rect class="cls-1" x="411.91" y="768.21" width="98.59" height="66.54" rx="7.95" ry="7.95"/>
</svg>